<svg width="830" height="104" viewBox="0 0 830 104" fill="none" xmlns="http://www.w3.org/2000/svg">
<path d="M240.15 73.3567L238.223 80.6006H213.613L215.828 72.3218H207.625L218.617 30.9278H226.82L228.994 22.649H270.01L265.621 39.2066H257.418L259.633 30.9278H235.023L224.031 72.3218H239.412L240.684 71.287L244.826 55.7642H236.623L238.797 47.4854H263.406L254.629 80.6006H246.426L248.641 72.3218H241.463L240.15 73.3567Z" fill="url(#paint0_linear_120_21)"/>
<path d="M262.832 80.6006L278.213 22.649H319.228L317.055 30.9278H292.445L288.015 47.4854H312.625L310.451 55.7642H285.842L281.453 72.3218H306.062L303.848 80.6006H262.832Z" fill="url(#paint1_linear_120_21)"/>
<path d="M326.857 55.7642L320.254 80.6006H312.051L327.431 22.649H343.838L339.449 39.2066H347.652L343.263 55.7642H351.467L360.244 22.649H376.65L361.269 80.6006H344.863L347.078 72.3218H330.672L335.06 55.7642H326.857Z" fill="url(#paint2_linear_120_21)"/>
<path d="M384.279 55.7642L377.676 80.6006H369.472L384.853 22.649H401.26L396.871 39.2066H405.074L400.685 55.7642H408.888L417.666 22.649H434.072L418.691 80.6006H402.285L404.5 72.3218H388.094L392.482 55.7642H384.279Z" fill="url(#paint3_linear_120_21)"/>
<path d="M466.31 55.7642L472.914 30.9278H456.508L449.904 55.7642H466.31ZM447.689 64.043L443.301 80.6006H426.894L440.101 30.9278H448.304L450.478 22.649H483.291L481.117 30.9278H489.32L476.113 80.6006H459.707L464.095 64.043H447.689Z" fill="url(#paint4_linear_120_21)"/>
<path d="M484.316 80.6006L499.697 22.649H516.103L500.722 80.6006H484.316Z" fill="url(#paint5_linear_120_21)"/>
<path d="M516.329 68.1824L513.027 80.6006H508.925L516.616 51.6248H524.819L522.625 59.9036H526.726L524.532 68.1824H528.633L533.022 51.6248H541.225L533.535 80.6006H525.332L526.439 76.4612H518.236L520.43 68.1824H516.329Z" fill="url(#paint6_linear_120_21)"/>
<path d="M560.646 55.7642H552.443L546.947 76.4612H555.15L560.646 55.7642ZM542.845 76.4612H538.744L544.24 55.7642H548.341L549.428 51.6248H565.835L564.748 55.7642H568.849L563.353 76.4612H559.252L558.144 80.6006H541.738L542.845 76.4612Z" fill="url(#paint7_linear_120_21)"/>
<path d="M589.357 55.7642H581.154L575.658 76.4612H583.861L589.357 55.7642ZM566.347 80.6006L574.038 51.6248H594.546L593.459 55.7642H597.56L592.064 76.4612H587.963L586.855 80.6006H566.347Z" fill="url(#paint8_linear_120_21)"/>
<path d="M595.058 80.6006L602.749 51.6248H623.256L622.17 55.7642H609.865L607.65 64.043H619.955L618.868 68.1824H606.563L604.369 76.4612H616.673L615.566 80.6006H595.058Z" fill="url(#paint9_linear_120_21)"/>
<path fill-rule="evenodd" clip-rule="evenodd" d="M239.412 72.322H224.031L235.023 30.928H259.633L257.418 39.2068H265.621L270.01 22.6492H228.994L226.82 30.928H218.617L207.625 72.322H215.828L213.613 80.6008H238.223L240.15 73.3568L241.463 72.322H248.641L246.426 80.6008H254.629L263.406 47.4856H238.797L236.623 55.7644H244.826L240.684 71.2871L239.412 72.322ZM238.396 69.6728L241.401 58.4136H236.623C235.808 58.4136 235.04 58.0317 234.543 57.38C234.046 56.7283 233.877 55.8807 234.086 55.0858L236.259 46.807C236.564 45.6453 237.606 44.8364 238.797 44.8364H263.406C264.222 44.8364 264.992 45.2193 265.488 45.8724C265.985 46.5256 266.153 47.3747 265.942 48.1702L257.165 81.2854C256.858 82.4441 255.817 83.25 254.629 83.25H246.426C245.609 83.25 244.838 82.8661 244.342 82.2115C243.845 81.5569 243.679 80.7062 243.892 79.9102L245.213 74.9712H242.439L240.758 81.2879C240.45 82.4454 239.41 83.25 238.223 83.25H213.613C212.796 83.25 212.026 82.8661 211.529 82.2115C211.033 81.5569 210.866 80.7062 211.079 79.9102L212.4 74.9712H207.625C206.809 74.9712 206.039 74.5881 205.542 73.9347C205.046 73.2812 204.878 72.4318 205.09 71.6362L216.082 30.2422C216.389 29.0841 217.429 28.2788 218.617 28.2788H224.8L226.457 21.9706C226.762 20.8089 227.803 20 228.994 20H270.01C270.826 20 271.595 20.3829 272.092 21.036C272.589 21.6892 272.756 22.5384 272.546 23.3338L268.157 39.8914C267.85 41.0501 266.81 41.856 265.621 41.856H257.418C256.601 41.856 255.831 41.4721 255.334 40.8175C254.837 40.1629 254.671 39.3122 254.884 38.5162L256.205 33.5772H237.038L227.452 69.6728H238.396ZM260.75 82.2136C260.253 81.5603 260.085 80.7109 260.296 79.9153L275.677 21.9638C275.985 20.8055 277.025 20 278.213 20H319.228C320.043 20 320.812 20.3819 321.309 21.0336C321.806 21.6853 321.975 22.5329 321.766 23.3278L319.592 31.6066C319.287 32.7683 318.245 33.5772 317.055 33.5772H294.456L291.443 44.8364H312.625C313.44 44.8364 314.208 45.2183 314.705 45.87C315.202 46.5217 315.371 47.3693 315.162 48.1642L312.989 56.443C312.684 57.6047 311.642 58.4136 310.451 58.4136H287.857L284.873 69.6728H306.062C306.879 69.6728 307.65 70.0567 308.147 70.7113C308.643 71.3659 308.81 72.2166 308.597 73.0125L306.382 81.2913C306.073 82.4471 305.034 83.25 303.848 83.25H262.832C262.016 83.25 261.246 82.867 260.75 82.2136ZM281.453 72.322L285.842 55.7644H310.451L312.625 47.4856H288.016L292.445 30.928H317.055L319.228 22.6492H278.213L262.832 80.6008H303.848L306.062 72.322H281.453ZM335.06 55.7644H326.857L320.254 80.6008H312.051L327.432 22.6492H343.838L339.449 39.2068H347.652L343.264 55.7644H351.467L360.244 22.6492H376.65L361.269 80.6008H344.863L347.078 72.322H330.672L335.06 55.7644ZM343.65 74.9712H330.672C329.856 74.9712 329.086 74.5883 328.59 73.9352C328.093 73.282 327.925 72.4328 328.136 71.6374L331.641 58.4136H328.871L322.789 81.2874C322.481 82.4451 321.442 83.25 320.254 83.25H312.051C311.235 83.25 310.465 82.867 309.968 82.2136C309.471 81.5603 309.304 80.7109 309.515 79.9153L324.896 21.9638C325.203 20.8055 326.243 20 327.432 20H343.838C344.654 20 345.423 20.3829 345.92 21.036C346.417 21.6892 346.584 22.5384 346.374 23.3338L342.869 36.5576H347.652C348.468 36.5576 349.238 36.9405 349.734 37.5936C350.231 38.2468 350.399 39.096 350.188 39.8914L346.683 53.1152H349.452L357.708 21.9646C358.015 20.8059 359.056 20 360.244 20H376.65C377.466 20 378.236 20.383 378.733 21.0364C379.23 21.6897 379.397 22.5391 379.186 23.3347L363.805 81.2862C363.498 82.4445 362.458 83.25 361.269 83.25H344.863C344.046 83.25 343.276 82.8661 342.779 82.2115C342.282 81.5569 342.116 80.7062 342.329 79.9102L343.65 74.9712ZM392.482 55.7644H384.279L377.676 80.6008H369.473L384.853 22.6492H401.26L396.871 39.2068H405.074L400.685 55.7644H408.889L417.666 22.6492H434.072L418.691 80.6008H402.285L404.5 72.322H388.094L392.482 55.7644ZM401.072 74.9712H388.094C387.278 74.9712 386.508 74.5883 386.011 73.9352C385.515 73.282 385.347 72.4328 385.558 71.6374L389.063 58.4136H386.293L380.211 81.2874C379.903 82.4451 378.863 83.25 377.676 83.25H369.473C368.657 83.25 367.887 82.867 367.39 82.2136C366.893 81.5603 366.726 80.7109 366.937 79.9153L382.318 21.9638C382.625 20.8055 383.665 20 384.853 20H401.26C402.076 20 402.845 20.3829 403.342 21.036C403.839 21.6892 404.006 22.5384 403.795 23.3338L400.29 36.5576H405.074C405.89 36.5576 406.659 36.9405 407.156 37.5936C407.653 38.2468 407.821 39.096 407.61 39.8914L404.105 53.1152H406.873L415.13 21.9646C415.437 20.8059 416.477 20 417.666 20H434.072C434.888 20 435.658 20.383 436.155 21.0364C436.651 21.6897 436.819 22.5391 436.608 23.3347L421.227 81.2862C420.919 82.4445 419.879 83.25 418.691 83.25H402.285C401.468 83.25 400.698 82.8661 400.201 82.2115C399.704 81.5569 399.538 80.7062 399.751 79.9102L401.072 74.9712ZM464.096 64.0432H447.689L443.301 80.6008H426.894L440.101 30.928H448.305L450.478 22.6492H483.291L481.117 30.928H489.32L476.113 80.6008H459.707L464.096 64.0432ZM484.528 28.2788L485.828 23.3278C486.037 22.5329 485.868 21.6853 485.371 21.0336C484.874 20.3819 484.106 20 483.291 20H450.478C449.288 20 448.246 20.8089 447.941 21.9706L446.285 28.2788H440.101C438.914 28.2788 437.874 29.0837 437.566 30.2414L424.359 79.9142C424.148 80.7098 424.315 81.5595 424.812 82.2131C425.308 82.8668 426.078 83.25 426.894 83.25H443.301C444.489 83.25 445.529 82.4441 445.836 81.2854L449.704 66.6924H460.676L457.171 79.9162C456.96 80.7116 457.128 81.5608 457.625 82.214C458.121 82.8671 458.891 83.25 459.707 83.25H476.113C477.301 83.25 478.341 82.4451 478.648 81.2874L491.855 31.6146C492.067 30.819 491.9 29.9693 491.403 29.3156C490.906 28.662 490.136 28.2788 489.32 28.2788H484.528ZM472.914 30.928H456.508L449.904 55.7644H466.31L472.914 30.928ZM469.492 33.5772L464.297 53.1152H453.326L458.521 33.5772H469.492ZM482.234 82.2136C481.737 81.5603 481.569 80.7109 481.781 79.9153L497.161 21.9638C497.469 20.8055 498.509 20 499.697 20H516.103C516.919 20 517.689 20.383 518.186 21.0364C518.683 21.6897 518.85 22.5391 518.639 23.3347L503.258 81.2862C502.951 82.4445 501.911 83.25 500.722 83.25H484.316C483.5 83.25 482.731 82.867 482.234 82.2136ZM484.316 80.6008H500.722L516.103 22.6492H499.697L484.316 80.6008ZM520.43 68.1826H516.329L513.027 80.6008H508.926L516.616 51.625H524.819L522.625 59.9038H526.726L524.532 68.1826H528.634L533.022 51.625H541.225L533.535 80.6008H525.332L526.439 76.4614H518.236L520.43 68.1826ZM523.011 79.1106H518.236C517.523 79.1106 516.846 78.8182 516.354 78.3086L515.562 81.2874C515.255 82.4451 514.215 83.25 513.027 83.25H508.926C508.11 83.25 507.34 82.867 506.843 82.2136C506.346 81.5603 506.179 80.7109 506.39 79.9153L514.08 50.9396C514.388 49.7812 515.428 48.9758 516.616 48.9758H524.819C525.635 48.9758 526.405 49.3587 526.901 50.0118C527.398 50.665 527.566 51.5141 527.355 52.3096L526.044 57.2546H526.726C527.436 57.2546 528.111 57.5446 528.602 58.0503L530.486 50.9404C530.794 49.7817 531.834 48.9758 533.022 48.9758H541.225C542.041 48.9758 542.811 49.3588 543.308 50.0122C543.805 50.6655 543.972 51.5149 543.761 52.3104L543.521 53.2164C543.75 53.1503 543.992 53.1152 544.24 53.1152H546.322L546.891 50.9464C547.196 49.7847 548.238 48.9758 549.428 48.9758H565.835C566.65 48.9758 567.418 49.3577 567.915 50.0094C568.412 50.6611 568.581 51.5087 568.372 52.3036L568.159 53.1152H568.849C569.555 53.1152 570.226 53.4017 570.716 53.9017L571.502 50.9396C571.81 49.7812 572.85 48.9758 574.038 48.9758H594.546C595.36 48.9758 596.129 49.3577 596.626 50.0094C597.123 50.6611 597.292 51.5087 597.083 52.3036L596.87 53.1152H597.56C598.266 53.1152 598.937 53.4017 599.427 53.9017L600.213 50.9396C600.521 49.7812 601.561 48.9758 602.749 48.9758H623.257C624.071 48.9758 624.84 49.3577 625.337 50.0094C625.834 50.6611 626.003 51.5087 625.794 52.3036L624.707 56.443C624.402 57.6047 623.36 58.4136 622.17 58.4136H611.875L611.078 61.394H619.955C620.77 61.394 621.538 61.7758 622.035 62.4276C622.532 63.0793 622.701 63.9269 622.492 64.7218L621.405 68.8612C621.1 70.0229 620.059 70.8318 618.868 70.8318H608.578L607.788 73.8122H616.674C617.491 73.8122 618.261 74.1961 618.758 74.8507C619.254 75.5053 619.421 76.3559 619.208 77.1519L618.1 81.2913C617.791 82.4471 616.752 83.25 615.566 83.25H595.058C594.242 83.25 593.473 82.867 592.976 82.2136C592.479 81.5603 592.312 80.7109 592.523 79.9153L592.761 79.0157C592.538 79.0777 592.304 79.1106 592.064 79.1106H589.973L589.389 81.2913C589.08 82.4471 588.041 83.25 586.855 83.25H566.347C565.531 83.25 564.762 82.867 564.265 82.2136C563.768 81.5603 563.601 80.7109 563.812 79.9153L564.051 79.0157C563.827 79.0777 563.593 79.1106 563.353 79.1106H561.262L560.679 81.2913C560.369 82.4471 559.331 83.25 558.144 83.25H541.738C540.921 83.25 540.151 82.8661 539.654 82.2115C539.157 81.5569 538.991 80.7062 539.204 79.9102L539.418 79.1106H538.744C538.03 79.1106 537.352 78.8178 536.861 78.3074L536.071 81.2862C535.763 82.4445 534.723 83.25 533.535 83.25H525.332C524.515 83.25 523.744 82.8661 523.248 82.2115C522.751 81.5569 522.585 80.7062 522.798 79.9102L523.011 79.1106ZM542.845 76.4614L541.738 80.6008H558.144L559.252 76.4614H563.353L568.849 55.7644H564.748L565.835 51.625H549.428L548.342 55.7644H544.24L538.744 76.4614H542.845ZM587.963 76.4614H592.064L597.56 55.7644H593.459L594.546 51.625H574.038L566.347 80.6008H586.855L587.963 76.4614ZM604.369 76.4614L606.563 68.1826H618.868L619.955 64.0432H607.65L609.865 55.7644H622.17L623.257 51.625H602.749L595.058 80.6008H615.566L616.674 76.4614H604.369ZM554.457 58.4136L550.368 73.8122H553.136L557.225 58.4136H554.457ZM552.443 55.7644L546.947 76.4614H555.15L560.646 55.7644H552.443ZM583.168 58.4136L579.079 73.8122H581.847L585.936 58.4136H583.168ZM581.154 55.7644L575.658 76.4614H583.861L589.357 55.7644H581.154Z" fill="url(#paint10_linear_120_21)"/>
<defs>
<linearGradient id="paint0_linear_120_21" x1="412.785" y1="-2.40811" x2="412.785" y2="97.379" gradientUnits="userSpaceOnUse">
<stop stop-color="#FFF5BE"/>
<stop offset="0.3125" stop-color="#FEDB5D"/>
<stop offset="0.68535" stop-color="#FABD2C"/>
<stop offset="1" stop-color="#F59F22"/>
</linearGradient>
<linearGradient id="paint1_linear_120_21" x1="412.785" y1="-2.40811" x2="412.785" y2="97.379" gradientUnits="userSpaceOnUse">
<stop stop-color="#FFF5BE"/>
<stop offset="0.3125" stop-color="#FEDB5D"/>
<stop offset="0.68535" stop-color="#FABD2C"/>
<stop offset="1" stop-color="#F59F22"/>
</linearGradient>
<linearGradient id="paint2_linear_120_21" x1="412.785" y1="-2.40811" x2="412.785" y2="97.379" gradientUnits="userSpaceOnUse">
<stop stop-color="#FFF5BE"/>
<stop offset="0.3125" stop-color="#FEDB5D"/>
<stop offset="0.68535" stop-color="#FABD2C"/>
<stop offset="1" stop-color="#F59F22"/>
</linearGradient>
<linearGradient id="paint3_linear_120_21" x1="412.785" y1="-2.40811" x2="412.785" y2="97.379" gradientUnits="userSpaceOnUse">
<stop stop-color="#FFF5BE"/>
<stop offset="0.3125" stop-color="#FEDB5D"/>
<stop offset="0.68535" stop-color="#FABD2C"/>
<stop offset="1" stop-color="#F59F22"/>
</linearGradient>
<linearGradient id="paint4_linear_120_21" x1="412.785" y1="-2.40811" x2="412.785" y2="97.379" gradientUnits="userSpaceOnUse">
<stop stop-color="#FFF5BE"/>
<stop offset="0.3125" stop-color="#FEDB5D"/>
<stop offset="0.68535" stop-color="#FABD2C"/>
<stop offset="1" stop-color="#F59F22"/>
</linearGradient>
<linearGradient id="paint5_linear_120_21" x1="412.785" y1="-2.40811" x2="412.785" y2="97.379" gradientUnits="userSpaceOnUse">
<stop stop-color="#FFF5BE"/>
<stop offset="0.3125" stop-color="#FEDB5D"/>
<stop offset="0.68535" stop-color="#FABD2C"/>
<stop offset="1" stop-color="#F59F22"/>
</linearGradient>
<linearGradient id="paint6_linear_120_21" x1="412.785" y1="-2.40811" x2="412.785" y2="97.379" gradientUnits="userSpaceOnUse">
<stop stop-color="#FFF5BE"/>
<stop offset="0.3125" stop-color="#FEDB5D"/>
<stop offset="0.68535" stop-color="#FABD2C"/>
<stop offset="1" stop-color="#F59F22"/>
</linearGradient>
<linearGradient id="paint7_linear_120_21" x1="412.785" y1="-2.40811" x2="412.785" y2="97.379" gradientUnits="userSpaceOnUse">
<stop stop-color="#FFF5BE"/>
<stop offset="0.3125" stop-color="#FEDB5D"/>
<stop offset="0.68535" stop-color="#FABD2C"/>
<stop offset="1" stop-color="#F59F22"/>
</linearGradient>
<linearGradient id="paint8_linear_120_21" x1="412.785" y1="-2.40811" x2="412.785" y2="97.379" gradientUnits="userSpaceOnUse">
<stop stop-color="#FFF5BE"/>
<stop offset="0.3125" stop-color="#FEDB5D"/>
<stop offset="0.68535" stop-color="#FABD2C"/>
<stop offset="1" stop-color="#F59F22"/>
</linearGradient>
<linearGradient id="paint9_linear_120_21" x1="412.785" y1="-2.40811" x2="412.785" y2="97.379" gradientUnits="userSpaceOnUse">
<stop stop-color="#FFF5BE"/>
<stop offset="0.3125" stop-color="#FEDB5D"/>
<stop offset="0.68535" stop-color="#FABD2C"/>
<stop offset="1" stop-color="#F59F22"/>
</linearGradient>
<linearGradient id="paint10_linear_120_21" x1="412.785" y1="-2.40794" x2="412.785" y2="97.3791" gradientUnits="userSpaceOnUse">
<stop stop-color="#8EC5CF"/>
<stop offset="0.479167" stop-color="#0083A1"/>
<stop offset="1" stop-color="#00809D"/>
</linearGradient>
</defs>
</svg>
